<svg
   width="375.05045"
   height="375.41699"
   viewBox="0 0 375.05045 375.417"
   xmlns="http://www.w3.org/2000/svg">
   <title>ESRI Logo</title>
    <path
       d="M 193.05859,1.7324219 C 151.79881,1.5875387 38.822834,13.404406 7.375,143.56445 3.7642945,158.50887 1.2292934,175.01267 0,193.23828 c 0,0 -6.2641082,84.24694 71.09375,145.94531 0,0 67.96265,59.19374 175.38672,29.75391 0,0 58.87944,-10.6487 96.77539,-77.04492 0,0 38.20991,-52.61561 30.69336,-123.39649 0,0 -2.50649,-66.08209 -60.75977,-113.060543 0,0 -49.48288,-50.7377264 -151.26953,-34.138672 0,0 -13.87556,-2.141656 -8.56054,12.474609 l 34.54882,29.78711 -19.48828,3.210937 c 0,0 -1.43952,-7.972813 -13.73047,-7.640625 0,0 -17.82801,2.215987 -23.58593,5.316406 0,0 -9.96471,3.100079 -17.16211,2.103516 l -2.76953,-37.980469 c 0,0 25.3568,-19.488539 97.10937,-21.7031246 0,0 5.20428,-1.1631736 0,-4.4296875 0,0 -5.70117,-0.6696904 -15.22266,-0.703125 z M 175.13672,25.433594 c 6.87144,-0.07756 15.12695,0.560547 15.12695,0.560547 32.57173,1.331056 58.80078,11.353515 58.80078,11.353515 43.68996,13.936942 67.23438,42.15625 67.23438,42.15625 -16.11111,-8.913707 -33.38477,-11.626953 -33.38477,-11.626953 -3.98626,-6.145476 -14.5625,-11.294922 -14.5625,-11.294922 -8.74762,-3.155785 -5.09179,4.484375 -5.09179,4.484375 l 4.15234,5.150391 c -24.5819,-6.865215 -62.67383,-4.541016 -62.67383,-4.541016 -10.18709,-14.505536 -35.6543,-35.875 -35.6543,-35.875 1.62634,-0.235299 3.76226,-0.341333 6.05274,-0.367187 z m -72.82227,7.232422 2.76758,35.099609 -21.148436,1.882813 C 63.891593,83.04668 42.298828,122.79883 42.298828,122.79883 L 41.080078,91.794922 C 67.433647,52.264568 102.31445,32.666016 102.31445,32.666016 Z m 125.69922,40.798828 c 18.53034,0.04846 27.62695,1.857422 27.62695,1.857422 -12.99736,2.975302 -24.27148,25.054684 -24.27148,25.054684 -1.25276,-3.601677 -17.69531,-26.621091 -17.69531,-26.621091 5.28508,-0.220211 10.06361,-0.302198 14.33984,-0.291015 z m -31.17383,2.169922 c 10.96164,11.744614 23.25391,33.277344 23.25391,33.277344 -8.14294,2.50552 -22.23633,9.94336 -22.23633,9.94336 -13.38886,5.71572 -11.5,20.55273 -11.5,20.55273 -18.04887,1.77167 -50.49219,15.83399 -50.49219,15.83399 C 128.33564,134.53581 121.35938,104.75 121.35938,104.75 c 5.64719,-4.20771 15.50195,-10.519531 15.50195,-10.519531 10.40856,-5.425735 23.58594,-10.296875 23.58594,-10.296875 6.86522,-2.546774 5.97851,-3.765625 5.97851,-3.765625 19.15617,-3.986254 30.41406,-4.533203 30.41406,-4.533203 z m 110.16407,10.335937 c 0,0 14.79813,6.028087 20.43554,9.238281 0,0 62.99161,68.005706 14.49219,177.406246 l 1.21875,-32.55468 c 0,0 17.82697,-1.77161 -0.44336,-11.1836 0,0 -4.1e-4,-30.67239 -1.88281,-35.10156 l 5.98047,-8.96875 c 0,0 -1.10875,-15.6117 -2.4375,-20.37305 0,0 18.04996,2.65679 -2.32422,-9.52343 0,0 -5.96535,-36.78331 -35.03906,-68.939457 z M 28.8125,112.74805 l 1.410156,22.6289 -13.859375,17.53711 C 16.989661,136.15841 28.8125,112.74805 28.8125,112.74805 Z m 83.70117,3.21093 11.43164,44.86329 c -31.005781,12.68418 -64.988279,38.67968 -64.988279,38.67968 l -7.828125,-24.89843 c 7.125066,-17.22543 18.085938,-17.30469 18.085938,-17.30469 10.02207,1.80084 19.417968,-10.41211 19.417968,-10.41211 8.142934,-6.81187 23.880858,-30.92774 23.880858,-30.92774 z M 32,150.92383 c -4.318442,12.73387 -4.759766,36.87305 -4.759766,36.87305 l 16.054688,21.25976 -15.335938,12.78906 c -7.142039,16.16647 8.96875,11.34961 8.96875,11.34961 15.557464,-11.84803 14.50586,-10.13086 14.50586,-10.13086 1.439481,7.03131 5.148437,13.45313 5.148437,13.45313 -18.381061,28.23597 19.953125,42.37695 19.953125,42.37695 3.288492,0.0391 3.523438,2.9375 3.523438,2.9375 -14.28928,11.70546 -15.267578,16.63867 -15.267578,16.63867 -3.327641,5.44167 1.527343,4.46289 1.527343,4.46289 l 9.63086,-0.7832 13.779297,-9.94531 c 5.872307,9.31739 21.845704,24.27344 21.845704,24.27344 2.50552,13.62375 7.9082,20.51367 7.9082,20.51367 l 18.63477,7.4375 -7.67383,8.6914 C 95.131226,345.56538 59.662109,307.23828 59.662109,307.23828 27.560164,266.05384 24.742188,247.73242 24.742188,247.73242 11.431624,208.27052 15.058594,159.56055 15.058594,159.56055 h 5.537109 z m 154.11328,2.02929 c 0.54808,1.91828 -0.31445,7.24415 -0.31445,7.24415 -11.43142,30.92748 10.33594,35.9375 10.33594,35.9375 3.91488,2.27063 23.49023,1.5664 23.49023,1.5664 16.28587,5.87231 17.38086,12.52735 17.38086,12.52735 -43.14188,1.48765 -73.99024,18.00781 -73.99024,18.00781 -4.93273,-8.76931 -22.70703,-58.09571 -22.70703,-58.09571 22.54966,-11.00078 45.80469,-17.1875 45.80469,-17.1875 z m -58.09766,22.35547 c 2.19233,11.11823 22.39454,59.11329 22.39454,59.11329 l -3.21094,1.64453 C 129.6606,229.72432 102.17773,225.26172 102.17773,225.26172 95.05267,222.6779 87.066406,224.87109 87.066406,224.87109 80.097935,225.81066 71.25,229.72461 71.25,229.72461 l -6.263672,-15.50195 c 40.479762,-29.83132 63.029292,-38.91407 63.029292,-38.91407 z m 205.21876,31.70899 1.56445,18.32226 c 0,0 -7.28119,-3.75763 -9.08203,-3.83593 z m -87.19336,17.20898 c 3.31845,8.51739 8.73828,12.23242 8.73828,12.23242 7.20336,6.49869 1.17578,20.98243 1.17578,20.98243 -6.1855,17.69522 -2.97656,32.80664 -2.97656,32.80664 -27.71729,1.01787 -47.68555,10.71484 -47.68555,10.71484 -19.26689,-29.23253 -35.54492,-57.46875 -35.54492,-57.46875 34.65827,-17.93814 76.29297,-19.26758 76.29297,-19.26758 z m 74.74414,8.47266 14.01367,5.24609 v 49.01563 l -8.68945,11.58789 c 0,0 -10.41406,-3.99328 -15.73829,-4.38477 l 3.21094,-4.30664 -0.4707,-33.35547 1.01758,-8.14257 2.19336,-6.57618 z m -150.92578,38.86523 c 2.87895,6.69912 21.59179,35.15625 21.59179,35.15625 -19.04544,8.74762 -33.66211,21.48047 -33.66211,21.48047 -0.83047,-1.21802 0.60938,-22.5332 0.60938,-22.5332 -0.0554,-5.86866 4.42968,-16.44336 4.42968,-16.44336 4.15235,-6.97595 7.03126,-17.66016 7.03126,-17.66016 z m 133.30859,30.34961 17.61719,2.58399 c -12.2144,15.81608 -36.09571,31.08398 -36.09571,31.08398 l 0.15625,-17.14648 c 7.98634,-4.77614 18.32227,-16.52149 18.32227,-16.52149 z m -47.60547,0.39258 c 6.81187,20.43563 14.09375,24.66406 14.09375,24.66406 l 1.25195,1.09571 0.78321,-0.47071 2.19336,-1.64258 -0.78321,16.28516 c -16.52076,8.37783 -28.42187,12.44922 -28.42187,12.44922 -25.44666,-29.43983 -31.39844,-42.125 -31.39844,-42.125 17.30373,-7.20336 42.28125,-10.25586 42.28125,-10.25586 z m -56.29492,15.73828 c 9.70888,17.06884 29.9082,40.24414 29.9082,40.24414 -19.10457,4.46295 -44.70703,3.28906 -44.70703,3.28906 -18.3999,-13.46715 -25.13281,-19.33984 -25.13281,-19.33984 20.59223,-15.50289 39.93164,-24.19336 39.93164,-24.19336 z m -48.66211,32.25781 15.15039,10.375 c -13.81949,-0.86127 -21.21875,-2.9375 -21.21875,-2.9375 z" />
</svg>