<svg
   viewBox="0 0 308.13086 350.89139"
   xmlns="http://www.w3.org/2000/svg">
  <g
     transform="translate(-121.85352,-87.01624)">
    <path
       d="m 214.74252,331.15056 c 0,0 22.71086,23.42429 61.23609,22.82977 0,0 51.1073,3.28815 80.31446,-46.36957 0,0 20.54706,-35.11213 8.43975,-71.68631 0,0 -5.8855,-1.13506 -6.22182,4.62433 0,0 1.84973,18.24504 -18.37116,5.29694 0,0 11.10567,16.04265 9.91662,21.63118 0,0 0.1189,3.92387 -6.24252,10.93927 0,0 -8.20444,5.52908 -7.55047,15.3982 0,0 -0.53507,6.53978 -6.42087,14.32806 0,0 -12.72284,15.2793 -16.64671,18.25192 0,0 -13.61462,11.11763 -16.17108,-11.11762 0,0 -1.60522,-12.78229 2.91317,-21.87853 0,0 6.12361,-11.17707 -11.02844,-11.02844 0,0 -9.9583,-0.5648 -12.87147,-1.57549 0,0 -9.2746,-1.18905 -9.75022,-19.14371 0,0 -1.84302,-7.43157 9.75022,-18.37083 0,0 4.28058,-6.24252 17.53849,-10.34474 0,0 6.83704,-1.24851 23.18649,2.3781 0,0 10.87981,3.5077 6.48032,-4.39949 0,0 -5.8858,-10.93926 -13.07955,-11.29598 l -13.13901,-0.23781 c 0,0 -5.7669,-0.35671 -6.18306,-6.18306 l 0.0595,-8.32335 c 0,0 2.14029,-7.66938 9.33404,-10.34474 0,0 4.99397,-1.54577 5.58849,-5.8858 l 0.0595,-11.47434 c 0,0 0.35672,-2.08084 -2.497,-2.91317 0,0 -12.66344,-4.81566 -27.52657,-4.04277 0,0 -26.04021,-2.19975 -51.24808,15.21984 0,0 12.36613,17.77631 -6.48032,28.00214 0,0 -12.30667,3.92387 -12.18777,18.60864 0,0 1.2485,9.21514 -8.32335,9.92857 l -11.6527,-0.0594 -2.14029,20.80838 c 0,0 7.55047,9.80962 18.84645,11.05812 0,0 8.20445,2.08084 16.64671,8.85843 0,0 1.72412,2.73481 11.11762,8.2639 0,0 11.17708,7.07485 -0.95124,21.93798 0,0 -14.14969,10.4042 -14.74422,18.31138 z M 276.0293,87.546875 122.35352,156.05078 V 393.45703 L 275.77734,437.37695 429.48438,369.0625 V 131.27148 Z m -0.0508,60.132815 A 117.12148,117.00256 0 0 1 393.09959,264.68359 117.12148,117.00256 0 0 1 275.9785,381.68555 117.12148,117.00256 0 0 1 158.8574,264.68359 117.12148,117.00256 0 0 1 275.9785,147.67969 Z" />
  </g>
</svg>
