<svg
   viewBox="0 0 253.93759 256.41959"
   xmlns="http://www.w3.org/2000/svg">
   <g
     transform="translate(-70.431687,-26.684124)">
    <path
       d="m 71.601649,167.17851 c 0,0 -4.697846,17.33343 4.85984,28.67306 9.557687,11.33963 90.474031,77.02847 90.474031,77.02847 0,0 30.374,23.00324 61.71997,0 l 86.01918,-72.24963 c 0,0 14.98451,-15.55149 7.69474,-33.61389 0,0 -0.80997,5.02183 -6.80377,12.0686 l -85.77619,72.41162 c 0,0 -28.75405,24.94718 -63.9069,0.24299 L 80.916343,181.02906 c 0,0 -5.345824,-4.37386 -9.314694,-13.85055 z" />
    <path
       d="m 79.539388,109.26541 c 0,0 -20.492327,21.22131 0,45.7635 l 83.832252,69.9007 c 0,0 32.39893,28.51107 68.92873,0 l 78.97241,-66.09383 c 0,0 28.18707,-24.2992 0,-52.81026 L 227.27854,36.367806 c 0,0 -30.13101,-21.788285 -61.31499,0 z" />
  </g>
</svg>
