<svg
   viewBox="0 0 446.19357 487.2182"
   xmlns="http://www.w3.org/2000/svg">
  <g
     transform="translate(-231.79297,-12.528311)">
    <path
       d="M 458.78906,13.074219 C 418.13897,12.053019 390.0625,28.392578 390.0625,28.392578 L 244.25586,112.57227 466.55664,241.30078 v 256.99414 l 145.09375,-83.58789 c 67.61297,-44.33334 65.83203,-114.02344 65.83203,-114.02344 V 118.99219 L 520.55859,28.392578 C 498.3415,17.589804 477.26638,13.5384 458.78906,13.074219 Z m -0.16992,60.109375 c 14.18352,0.3022 30.20582,2.93963 46.80469,9.972656 l 117.26367,67.70313 v 134.94921 c 0,0 -2.11085,53.16519 -51.09766,88.50586 l -49.63281,29.16602 V 375.8418 l 38.53125,-22.24805 c 0,0 35.09675,-22.1741 39.20508,-70.21289 V 164.5918 L 499.51758,106.75586 c 0,0 -41.091,-24.849003 -89.56836,0 l -33.42578,19.29883 -22.85938,-13.19727 51.44336,-29.70117 c 0,0 22.30797,-10.637497 53.51172,-9.972656 z M 232.29297,132.38867 v 64.11719 l 155.60742,89.57422 v 26.625 l -89.04101,-51.76172 -55.49024,31.95312 144.42383,83.50196 v 26.73242 L 233.14453,313.3457 c 0,0 6.80012,65.32392 67.65235,103.28125 l 142.59374,82.25391 V 254.76562 Z m 225.4707,27.56836 c 11.08679,0.0211 25.25317,1.50645 37.57227,7.36914 l 49.76953,28.73438 v 58.50586 c 0,0 -1.68804,25.98481 -23.12891,50.40625 v -95.4961 l -83.30664,-48.09765 c 0,0 8.00696,-1.44299 19.09375,-1.42188 z" />
  </g>
</svg>
