<svg
   viewBox="0 0 512 512"
   xmlns="http://www.w3.org/2000/svg">
    <path
       d="M 251.10938 17.800781 C 206.17258 17.180948 173.19922 27.099609 173.19922 27.099609 C 131.62207 37.629391 132.21484 73.011719 132.21484 73.011719 L 132.21484 110.86328 C 134.40474 118.4732 141.90625 117.65234 141.90625 117.65234 L 237.00195 117.65234 L 237.00195 130.73828 L 95.917969 130.73828 C 12.701544 134.24213 18.394531 250.52539 18.394531 250.52539 C 23.212324 373.5981 89.347656 363.30469 89.347656 363.30469 L 130.62695 363.08594 C 138.22673 359.91401 137.63477 352.66992 137.63477 352.66992 L 137.63477 299.9082 C 148.03682 247.13147 195.28516 249.64844 195.28516 249.64844 L 305.92969 249.64844 C 359.03491 240.88882 360.87695 192.60156 360.87695 192.60156 L 360.87695 81.605469 C 358.94133 42.738186 317.82812 27.099609 317.82812 27.099609 C 294.4313 20.542691 271.53519 18.082524 251.10938 17.800781 z M 187.52344 50.953125 A 19.194746 19.349596 0 0 1 206.7168 70.302734 A 19.194746 19.349596 0 0 1 187.52344 89.652344 A 19.194746 19.349596 0 0 1 168.32812 70.302734 A 19.194746 19.349596 0 0 1 187.52344 50.953125 z " />
    <path
       d="M 424.875 146.44141 C 423.05721 146.48247 422.02539 146.64258 422.02539 146.64258 L 380.74414 146.86133 C 373.14436 150.03326 373.73828 157.27734 373.73828 157.27734 L 373.73828 210.04102 C 363.33623 262.81775 316.08789 260.29883 316.08789 260.29883 L 205.44336 260.29883 C 152.33814 269.05845 150.49609 317.3457 150.49609 317.3457 L 150.49609 428.3418 C 152.43171 467.20908 194.9375 481.76562 194.9375 481.76562 C 219.92571 488.76852 243.73787 493.6789 262.93164 494.22461 C 301.24637 495.31397 326.86914 484.08789 326.86914 484.08789 C 368.44629 473.55811 378.53711 437.86523 378.53711 437.86523 L 379.1582 399.08398 C 376.9683 391.47406 369.4668 392.29492 369.4668 392.29492 L 274.37109 392.29492 L 274.37109 379.21094 L 415.45508 379.21094 C 498.67151 375.70709 492.97852 259.42188 492.97852 259.42188 C 488.76295 151.73325 437.59955 146.15398 424.875 146.44141 z M 314.96484 421.81641 A 19.194746 19.349596 0 0 1 334.1582 441.16602 A 19.194746 19.349596 0 0 1 314.96484 460.51562 A 19.194746 19.349596 0 0 1 295.76953 441.16602 A 19.194746 19.349596 0 0 1 314.96484 421.81641 z " />
</svg>
