<svg
   viewBox="0 0 400 400"
   xmlns="http://www.w3.org/2000/svg">
    <path
       d="m 307.95508,0.85546875 c -2.10687,2.18617195 -77.375,51.16406225 -77.375,51.16406225 -60.24623,39.680243 -78.39258,78.392579 -78.39258,78.392579 -12.50532,23.06537 -20.19336,43.11037 -24.49805,60.48437 l -0.0137,-0.0371 c 0,0 -9.82543,-10.01691 -43.429686,-25.07422 0,0 -9.483255,-5.00786 -16.378906,-7.06446 0,0 -17.842998,-7.49973 -23.105469,-11.25 0,0 -12.097635,60.36718 0,104.64453 0,0 16.315153,77.56765 69.009761,79.10743 0,0 10.9429,-5.42347 24.12891,-12.98438 L 47.361328,172.08789 143.83984,314.76562 c 8.27378,-4.926 16.91539,-10.44782 24.08204,-15.96289 0.99168,0.56285 1.9969,1.25747 2.99609,1.99415 l 0.0117,-0.0156 130.90625,-278.339844 -122.69532,285.699214 -0.0371,0.0449 c 0.81507,0.86954 2.24804,2.33593 2.24804,2.33593 26.68948,25.32079 49.27344,18.30664 49.27344,18.30664 55.43199,-8.04106 78.35742,-56.11718 78.35742,-56.11718 C 365.09875,165.61085 317.2793,28.828125 317.2793,28.828125 311.12019,9.8375349 307.95508,0.85546875 307.95508,0.85546875 Z" />
</svg>
