<svg
   width="111.55556"
   height="111.55556"
   viewBox="0 0 111.55556 111.55556"
   xmlns="http://www.w3.org/2000/svg">
   <title>Mapbox Logo</title>
    <path
       d="M 55.714844 0.3828125 C -1.2768846 3.1940637 0.12695312 57.248047 0.12695312 57.248047 C 3.8326933 111.81187 55.714844 111.68359 55.714844 111.68359 C 112.70657 107.46671 111.17188 55.074219 111.17188 55.074219 C 110.44669 41.57941 106.70315 31.414701 101.47461 23.757812 C 85.512961 0.38294593 55.714844 0.3828125 55.714844 0.3828125 z M 60.375 22.005859 C 60.885076 21.99338 61.401421 21.996626 61.925781 22.015625 C 62.450142 22.034624 62.981955 22.069512 63.519531 22.123047 C 64.057108 22.176581 64.600667 22.248716 65.150391 22.339844 C 65.700114 22.430971 66.255604 22.542051 66.816406 22.673828 C 67.377209 22.805606 67.944812 22.959281 68.515625 23.134766 C 69.086438 23.31025 69.660479 23.508219 70.240234 23.730469 C 70.819989 23.952718 71.404559 24.198631 71.992188 24.470703 C 72.579816 24.742775 73.171192 25.040283 73.765625 25.365234 C 74.360058 25.690185 74.958424 26.04294 75.558594 26.423828 C 76.158764 26.804716 76.760397 27.214415 77.365234 27.654297 C 77.970072 28.094179 78.57711 28.564473 79.185547 29.066406 C 79.793984 29.56834 80.404657 30.100927 81.015625 30.667969 C 81.015625 30.667969 81.291405 30.945384 81.744141 31.46875 C 81.970508 31.730433 82.240293 32.052955 82.542969 32.433594 C 82.845645 32.814232 83.180755 33.252471 83.535156 33.744141 C 83.889558 34.23581 84.262988 34.782177 84.644531 35.376953 C 85.026074 35.97173 85.414727 36.616681 85.798828 37.306641 C 86.182929 37.9966 86.563705 38.730594 86.925781 39.507812 C 87.106819 39.896422 87.282203 40.29614 87.453125 40.705078 C 87.624047 41.114016 87.789532 41.532661 87.947266 41.960938 C 88.104999 42.389214 88.255012 42.826813 88.396484 43.273438 C 88.537956 43.720062 88.670831 44.176643 88.792969 44.640625 C 88.915106 45.104607 89.027223 45.576292 89.126953 46.056641 C 89.226683 46.536989 89.314422 47.025759 89.388672 47.521484 C 89.462921 48.017209 89.522663 48.519186 89.568359 49.029297 C 89.614056 49.539408 89.646086 50.056572 89.660156 50.580078 C 89.674226 51.103584 89.67102 51.634011 89.650391 52.169922 C 89.629761 52.705833 89.591604 53.247596 89.533203 53.794922 C 89.474802 54.342247 89.396121 54.895376 89.296875 55.453125 C 89.197629 56.010874 89.076758 56.573442 88.933594 57.140625 C 88.790429 57.707808 88.625702 58.279843 88.435547 58.855469 C 88.245392 59.431094 88.031235 60.010672 87.791016 60.59375 C 87.550796 61.176828 87.28359 61.763976 86.990234 62.353516 C 86.696878 62.943055 86.37691 63.533896 86.027344 64.128906 C 85.677778 64.723917 85.299473 65.322384 84.890625 65.921875 C 84.481777 66.521366 84.041517 67.123581 83.570312 67.726562 C 83.570312 67.726562 83.337991 68.037419 82.851562 68.572266 C 82.608348 68.839689 82.301715 69.163153 81.929688 69.53125 C 81.55766 69.899347 81.118927 70.311067 80.613281 70.757812 C 80.107635 71.204558 79.534693 71.686085 78.890625 72.189453 C 78.246557 72.692822 77.531436 73.217893 76.744141 73.755859 C 76.350493 74.024843 75.938168 74.29681 75.507812 74.570312 C 75.077457 74.843815 74.629773 75.119262 74.162109 75.394531 C 73.694446 75.669801 73.208697 75.94642 72.703125 76.220703 C 72.197553 76.494986 71.671034 76.766566 71.126953 77.037109 C 70.582872 77.307652 70.020691 77.575794 69.4375 77.839844 C 68.854309 78.103894 68.251807 78.364337 67.628906 78.619141 C 67.006005 78.873945 66.36243 79.124383 65.699219 79.367188 C 65.036007 79.609992 64.352561 79.846166 63.648438 80.074219 C 62.944314 80.302271 62.220244 80.521875 61.474609 80.732422 C 60.728974 80.942969 59.961576 81.143696 59.173828 81.333984 C 58.386081 81.524272 57.576554 81.703818 56.746094 81.871094 C 55.915633 82.03837 55.06518 82.192473 54.191406 82.333984 C 53.317632 82.475495 52.421594 82.603804 51.503906 82.716797 C 50.586218 82.82979 49.645796 82.928044 48.683594 83.009766 C 47.721391 83.091487 46.737787 83.157381 45.730469 83.205078 C 44.723151 83.252775 43.691706 83.28205 42.638672 83.292969 C 41.585638 83.303888 40.509506 83.29619 39.410156 83.267578 C 38.310806 83.238966 37.189236 83.190036 36.042969 83.119141 C 34.896702 83.048245 33.726987 82.955777 32.533203 82.839844 C 31.339419 82.723911 30.120808 82.583645 28.878906 82.419922 C 28.878906 82.419922 28.796978 81.852276 28.691406 80.822266 C 28.63862 80.307261 28.580809 79.677295 28.523438 78.945312 C 28.466066 78.21333 28.408748 77.378974 28.361328 76.457031 C 28.313908 75.535089 28.276836 74.524339 28.253906 73.439453 C 28.230976 72.354567 28.222183 71.195422 28.238281 69.974609 C 28.254379 68.753797 28.293618 67.472301 28.363281 66.142578 C 28.432945 64.812856 28.534108 63.435053 28.671875 62.023438 C 28.740759 61.31763 28.819568 60.604028 28.908203 59.882812 C 28.996839 59.161597 29.094874 58.432465 29.205078 57.699219 C 29.315283 56.965973 29.436722 56.228227 29.570312 55.486328 C 29.703903 54.744429 29.849018 53.999128 30.007812 53.251953 C 30.166607 52.504778 30.339576 51.754934 30.525391 51.005859 C 30.711206 50.256785 30.910347 49.507362 31.125 48.759766 C 31.339653 48.012169 31.569145 47.266179 31.814453 46.523438 C 32.059761 45.780696 32.321829 45.04115 32.599609 44.306641 C 32.87739 43.572131 33.170351 42.843994 33.482422 42.121094 C 33.794492 41.398194 34.124479 40.68057 34.472656 39.972656 C 34.820834 39.264743 35.188117 38.566503 35.574219 37.876953 C 35.96032 37.187403 36.365172 36.507653 36.791016 35.839844 C 37.216859 35.172034 37.663458 34.515739 38.130859 33.873047 C 38.598261 33.230355 39.086878 32.600525 39.597656 31.986328 C 40.108434 31.372131 40.641295 30.773731 41.197266 30.191406 C 41.753237 29.609081 42.332565 29.04317 42.935547 28.496094 C 42.935547 28.496094 43.224702 28.247025 43.769531 27.845703 C 44.041946 27.645042 44.377637 27.404929 44.773438 27.140625 C 45.169238 26.876321 45.626081 26.58669 46.136719 26.283203 C 46.647356 25.979716 47.213151 25.663916 47.830078 25.345703 C 48.447005 25.027491 49.113457 24.706916 49.828125 24.398438 C 50.542793 24.089959 51.305514 23.791865 52.109375 23.517578 C 52.511305 23.380435 52.923077 23.250962 53.345703 23.126953 C 53.768329 23.002944 54.202278 22.885162 54.644531 22.777344 C 55.086784 22.669526 55.537235 22.570991 55.998047 22.482422 C 56.458858 22.393853 56.929902 22.316263 57.408203 22.25 C 57.886505 22.183737 58.372465 22.12879 58.867188 22.087891 C 59.36191 22.046991 59.864924 22.018338 60.375 22.005859 z " />
    <path
       d="M 61.984926,66.276885 56.473147,55.208148 45.268874,49.515655 56.518325,44.18459 l 5.466601,-11.339808 5.4666,11.159094 11.29463,5.511779 -11.023559,5.240708 z"
       id="path1925" />
</svg>
