<svg
   viewBox="0 0 1092.8005 7318.2476"
   preserveAspectRatio="none"
   xmlns="http://www.w3.org/2000/svg">
  <g
     transform="translate(5.1093942,3.4760125)">
    <path
      id='svgPath'
       d="M 541.28738,1.872943 475.35912,67.705031 389.25826,168.21623 323.19232,255.79144 259.38334,351.04172 196.74577,459.6348 139.34579,577.48066 90.78806,700.21735 52.777503,826.06348 23.516655,962.34913 7.10341,1086.2402 2.729909,1219.873 l 4.920975,103.0989 16.788162,129.6986 24.35636,113.9545 32.534757,111.3557 45.063647,120.6184 50.9462,111.7183 62.29193,115.8357 63.86682,103.4134 77.63516,111.3892 86.08481,110.3303 74.06865,86.587 87.85646,89.7916 74.95373,89.2073 72.23609,97.886 69.26709,107.9273 61.20971,111.4719 53.68311,116.936 42.95193,115.5371 34.086,118.9248 22.861,111.6397 16.0806,135.9924 3.6531,104.8196 -5.7453,127.2178 -17.8653,132.5786 -28.8244,128.1103 -37.49164,120.3194 -51.17059,128.2182 -50.62726,105.0093 -55.58752,99.9756 -64.83289,102.895 -72.68695,102.9121 -73.2843,93.919 -80.72266,94.7109 -83.98626,85.4927 -82.97553,98.7934 -62.94653,85.1924 -65.44085,100.4238 -57.09132,100.9473 -50.72108,104.9424 -46.17337,115.582 -35.157018,111.1441 -29.389516,127.1191 -17.204048,118.7232 -7.742439,155.7729 7.24818,139.2319 18.409656,127.7242 29.342142,126.3925 37.283733,117.5269 44.45166,111.7046 56.64209,118.0678 53.4888,96.0474 65.50821,103.9893 68.86441,97.7309 73.78958,94.9629 83.7995,98.4883" />
  </g>
</svg>
