<svg
   viewBox="0 0 95.026756 67.105522"
   xmlns="http://www.w3.org/2000/svg">
  <g
     transform="translate(-0.00310045,3.8024901)">
    <path
       d="m 94.814453,-14.369141 c -11.220865,0.103444 -18.433594,3.414063 -18.433594,3.414063 C 63.382115,-5.57882 59.226562,6.1992188 59.226562,6.1992188 c -6.716231,15.9375002 0,31.8378902 0,31.8378902 1.768842,4.406041 4.271485,7.400391 4.271485,7.400391 8.472136,10.59109 20.541015,11.861328 20.541015,11.861328 10.319339,2.055028 21.457028,0 21.457028,0 8.72835,-1.436311 16.58594,-4.490234 16.58594,-4.490234 V 18.355469 H 89.902344 V 31.519531 H 103.81641 V 45.214844 C 86.097656,46.94922 80.478516,38.572266 80.478516,38.572266 73.608465,31.195939 75.109375,18.537109 75.109375,18.537109 75.808006,6.4678276 84.847656,1.6679688 84.847656,1.6679688 c 12.656251,-6.8750001 24.906254,0 24.906254,0 2.78124,0.9375 10.03125,6.5078124 10.03125,6.5078124 h 2.03125 v -16.34375 c -3.92188,-1.9062502 -6.53125,-2.7871092 -6.53125,-2.7871092 -7.61621,-2.642146 -14.59311,-3.468247 -20.470707,-3.414063 z m 173.539067,0.01953 c -6.62333,0.03695 -13.66358,1.247924 -19.94922,4.7675778 0,0 -12.46875,5.7890619 -11.09375,19.1328124 0,0 0.0314,9.3437508 8.21875,14.3437498 0,0 4.8125,3.546874 14.73437,5.546875 0,0 0.2428,0.113596 3.21485,0.666016 0,0 5.45703,1.083983 6.23828,1.302734 0,0 9.53125,1.4375 8.125,8.125 0,0 6.8e-4,3.23932 -6.36328,4.962891 0,0 -6.74021,1.502604 -13.85547,0 -4.24264,-0.751302 -8.27539,-2.441406 -8.27539,-2.441406 -5.10443,-1.82301 -10.57422,-6.111329 -10.57422,-6.111329 h -1.94336 v 16.722657 c 0,0 10.91459,5.486101 26.60351,5.353515 0,0 28.02027,1.546844 32.57227,-18.738281 0,0 4.55095,-16.264217 -12.99414,-22.583984 0,0 -6.88867,-2.554689 -16.16992,-4.085938 0,0 -6.375,-1.468751 -6.75,-1.78125 0,0 -4.5,-1.4374984 -4.34375,-5.3437498 0,0 -0.0314,-4.468747 6.09375,-5.99999995 0,0 6.25,-2.06249955 14.96875,0 0,0 7.81392,1.49978127 15.01757,7.00195315 l 1.90821,0.00586 -0.008,-16.078125 c 0,0 -11.81296,-4.8432364 -25.375,-4.7675774 z m -108.27149,1.345703 v 12.32812475 h 11.4375 V 44.402344 h -11.46875 v 12.375 h 40.89063 V 44.417969 H 189.51953 V -0.66015625 h 11.4375 V -13.003906 Z m 56.85156,89.845703 c -6.62332,0.03695 -13.66357,1.245971 -19.94921,4.765625 0,0 -12.46875,5.789062 -11.09376,19.13281 0,0 0.0314,9.34376 8.21876,14.34375 0,0 4.8125,3.54688 14.73437,5.54688 0,0 0.2428,0.11555 3.21484,0.66797 0,0 5.45703,1.08203 6.23829,1.30078 0,0 9.53124,1.4375 8.125,8.125 0,0 6.7e-4,3.24127 -6.36329,4.96484 0,0 -6.74021,1.50261 -13.85547,0 -4.24264,-0.7513 -8.27539,-2.44336 -8.27539,-2.44336 -5.10443,-1.82301 -10.57421,-6.11132 -10.57421,-6.11132 h -1.94336 v 16.72265 c 0,0 10.91458,5.48806 26.60351,5.35547 0,0 28.02027,1.54684 32.57227,-18.73828 0,0 4.55095,-16.26422 -12.99414,-22.58399 0,0 -6.88868,-2.55664 -16.16992,-4.08789 0,0 -6.375,-1.46875 -6.75,-1.78125 0,0 -4.5,-1.43749 -4.34376,-5.343748 0,0 -0.0314,-4.468747 6.09376,-6 0,0 6.24999,-2.062499 14.96874,0 0,0 7.81589,1.501735 15.01954,7.003907 l 1.90625,0.0059 -0.008,-16.080078 c 0,0 -11.81295,-4.841284 -25.375,-4.765625 z m -108.27734,1.351562 v 12.328125 h 11.4375 V 135.59961 H 108.625 v 12.375 h 40.89062 V 135.61523 H 138.09375 V 90.537109 h 11.4375 v -12.34375 z m 14.01953,91.175783 -25.761718,69.79297 h 18.140628 l 4.82422,-14.10547 h 25.875 l 4.82812,14.10938 h 18.61328 L 143.42578,169.36914 Z M 0.01171875,169.375 v 69.79297 H 25.740234 c 0,0 27.93558,2.62654 37.517578,-20.88477 6.151129,-14.89344 10e-7,-28.48632 0,-28.48632 -4.156251,-10.34376 -13.03125,-15.09376 -13.03125,-15.09376 -7.874997,-5.59375 -24.249999,-5.32812 -24.25,-5.32812 z m 312.63672125,0 -25.76172,69.79297 h 18.14062 l 4.82422,-14.10547 h 25.875 l 4.82813,14.10938 h 18.61328 L 333.39844,169.375 Z m -115.40235,0.002 v 13.49024 h 21.78711 l 0.01,56.30078 h 18 V 182.877 h 21.78711 v -13.5 z M 18.007812,182.39062 h 5.03125 l 4.640626,0.14063 0.429687,0.0312 1.773437,0.16406 c 0,0 8.35616,0.24982 13.94336,8.05078 0,0 3.771925,5.76419 3.509766,13.09961 0,0 0.327931,9.66045 -3.921876,14.64063 0,0 -3.137655,5.25995 -12.466796,7.19726 0,0 -5.017579,0.50391 -7.697266,0.38672 l -5.242188,0.008 z m 114.781248,4.875 8.625,25 h -17.15625 z m 189.99805,0.0195 8.625,25 h -17.15625 z"
       transform="scale(0.26458333)" />
  </g>
</svg>
